<?xml version="1.0" encoding="UTF-8" standalone="no"?>
<!DOCTYPE svg PUBLIC "-//W3C//DTD SVG 1.1//EN" "http://www.w3.org/Graphics/SVG/1.1/DTD/svg11.dtd">
<svg width="100%" height="100%" viewBox="0 0 692 686" version="1.1" xmlns="http://www.w3.org/2000/svg" xmlns:xlink="http://www.w3.org/1999/xlink" xml:space="preserve" xmlns:serif="http://www.serif.com/" style="fill-rule:evenodd;clip-rule:evenodd;stroke-miterlimit:10;">
    <g transform="matrix(1,0,0,1,58.492,476.878)">
        <path d="M0,-440.37C-12.122,-440.37 -21.984,-430.508 -21.984,-418.385L-21.984,-21.985C-21.984,-9.862 -12.122,0.001 0,0.001L567.342,0.001C579.464,0.001 589.328,-9.862 589.328,-21.985L589.328,-418.385C589.328,-430.508 579.464,-440.37 567.342,-440.37L0,-440.37ZM567.342,36.508L0,36.508C-32.253,36.508 -58.492,10.269 -58.492,-21.985L-58.492,-418.385C-58.492,-450.638 -32.253,-476.878 0,-476.878L567.342,-476.878C599.595,-476.878 625.835,-450.638 625.835,-418.385L625.835,-21.985C625.835,10.269 599.595,36.508 567.342,36.508" style="fill:rgb(83,202,229);fill-rule:nonzero;"/>
    </g>
    <g transform="matrix(1,0,0,1,562.314,335.253)">
        <path d="M0,-74.08C-9.509,-88.694 -36.348,-85.495 -52.323,-85.328C-68.106,-85.163 -80.68,-83.857 -86.177,-72.07C-96.219,-84.091 -107.655,-94.646 -119.792,-103.315C-179.75,-146.143 -321.509,-205.245 -321.509,-205.245C-321.941,-205.245 -250.416,-124.301 -250.416,-124.301C-302.636,-118.829 -329.49,-88.367 -343.125,-66.039C-349.007,-76.277 -361.111,-77.463 -376.112,-77.619C-392.087,-77.786 -418.927,-80.985 -428.435,-66.371C-437.215,-52.876 -434.118,-27.352 -433.318,-10.809C-432.884,-1.832 -431.647,8.727 -429.43,17.458C-426.229,30.055 -425.149,30.649 -413.216,21.832C-395.05,8.412 -377.388,-7.355 -361.125,-23.589C-367.66,1.289 -368.728,29 -362.796,57.685C-356.283,89.182 -329.646,116.389 -280.823,125.811C-253.082,131.165 -232.932,126.151 -203.734,125.382C-174.536,126.151 -176.324,130.95 -130.927,125.811C-94.875,121.73 -63.324,100.011 -53.838,69.278C-44.122,37.799 -46.405,6.982 -56.348,-20.639C-43.226,-8.22 -29.376,3.665 -15.219,14.123C-3.286,22.94 -2.206,22.346 0.994,9.749C3.212,1.018 4.449,-9.541 4.883,-18.517C5.683,-35.061 8.78,-60.585 0,-74.08Z" style="fill:none;stroke:white;stroke-width:24.58px;"/>
    </g>
    <g transform="matrix(1,0,0,1,528.552,152.904)">
        <path d="M0,243.34C-10.855,278.51 -46.963,303.364 -88.22,308.035C-140.172,313.916 -138.125,308.424 -171.539,307.545C-204.953,308.424 -228.012,314.161 -259.759,308.035C-315.631,297.252 -346.114,266.117 -353.567,230.072C-363.444,182.309 -356.365,136.906 -337.726,100.416C-324.99,75.484 -294.774,29.126 -224.961,21.81C-224.961,21.81 -306.814,-70.821 -306.319,-70.821C-306.319,-70.821 -144.093,-3.186 -75.477,45.825C-18.671,86.401 24.799,162.996 0,243.34" style="fill:rgb(83,202,229);fill-rule:nonzero;"/>
    </g>
    <g transform="matrix(1,0,0,1,189.886,299.663)">
        <path d="M0,-23.006C-22.021,0.154 -46.871,23.275 -72.601,42.284C-86.257,52.373 -87.494,51.694 -91.156,37.277C-93.694,27.286 -95.109,15.202 -95.606,4.93C-96.521,-14.003 -100.066,-43.212 -90.018,-58.655C-79.136,-75.379 -48.421,-71.718 -30.14,-71.527C-7.491,-71.291 9.398,-69.023 11.763,-43.591L0,-23.006Z" style="fill:rgb(83,202,229);fill-rule:nonzero;"/>
    </g>
    <g transform="matrix(1,0,0,1,488.384,311.425)">
        <path d="M0,-64.175C2.365,-89.607 19.253,-91.875 41.902,-92.112C60.184,-92.302 90.899,-95.963 101.78,-79.239C111.829,-63.796 108.284,-34.587 107.369,-15.654C106.872,-5.382 105.457,6.701 102.918,16.693C99.256,31.11 98.02,31.788 84.364,21.7C58.633,2.69 33.783,-20.43 11.763,-43.591L0,-64.175Z" style="fill:rgb(83,202,229);fill-rule:nonzero;"/>
    </g>
    <g transform="matrix(1,0,0,1,433.307,596.369)">
        <path d="M0,-40.009C-11.129,-76.503 -13.216,-120.685 -54.39,-137.008L-76.788,-137.008L-77.228,-137.008L-99.625,-137.008C-140.799,-120.685 -142.886,-76.503 -154.015,-40.009C-163.907,-7.574 -183.707,42.109 -151.345,68.596C-116.643,96.999 -30.251,95.628 -2.67,68.596C27.197,39.324 9.891,-7.574 0,-40.009" style="fill:rgb(83,202,229);fill-rule:nonzero;"/>
    </g>
    <g transform="matrix(1,0,0,1,204.776,667.414)">
        <path d="M0,-142.791C0,-142.791 -36.677,-138.716 -36.677,-91.851C-36.677,-91.851 -38.385,-56.728 -1.929,-31.64C18.893,-17.312 57.724,-0.63 101.562,6.113L125.857,-25.124C125.857,-25.124 68.365,-45.506 52.979,-71.475C52.979,-71.475 55.017,-148.904 0,-142.791" style="fill:rgb(83,202,229);fill-rule:nonzero;"/>
    </g>
    <g transform="matrix(1,0,0,1,508.088,667.414)">
        <path d="M0,-142.791C0,-142.791 36.677,-138.716 36.677,-91.851C36.677,-91.851 38.385,-56.728 1.929,-31.64C-18.892,-17.312 -57.724,-0.63 -101.561,6.113L-125.856,-25.124C-125.856,-25.124 -68.365,-45.506 -52.979,-71.475C-52.979,-71.475 -55.016,-148.904 0,-142.791" style="fill:rgb(83,202,229);fill-rule:nonzero;"/>
    </g>
    <g transform="matrix(1,0,0,1,335.505,507.15)">
        <path d="M0,116.544L21.921,32.568L54.069,49.021L116.355,-46.078L75.268,116.946L51.149,103.584L28.223,162.622L0,116.544Z" style="fill:white;fill-rule:nonzero;"/>
    </g>
    <g transform="matrix(1,0,0,1,336.483,495.109)">
        <path d="M0,142.473L31.19,75.188L60.073,87.603L114.565,-32.293L118.046,-25.447L85.261,151.538L57.485,136.348L41.943,174.766L0,142.473Z" style="fill:white;fill-rule:nonzero;"/>
    </g>
    <g transform="matrix(1,0,0,1,327.459,506.679)">
        <path d="M0,139.488L35.948,53.866L64.831,66.281L120.824,-34.002L86.361,124.731L62.242,111.369L49.561,173.49L0,139.488Z" style="fill:rgb(83,202,229);fill-rule:nonzero;"/>
    </g>
</svg>
